<?xml version="1.0" standalone="no"?>
<!DOCTYPE svg PUBLIC "-//W3C//DTD SVG 20010904//EN"
 "http://www.w3.org/TR/2001/REC-SVG-20010904/DTD/svg10.dtd">
<svg version="1.0" xmlns="http://www.w3.org/2000/svg"
 width="500.000000pt" height="500.000000pt" viewBox="0 0 500.000000 500.000000"
 preserveAspectRatio="xMidYMid meet">
<metadata>
Created by potrace 1.11, written by Peter Selinger 2001-2013
</metadata>
<g transform="translate(0.000000,500.000000) scale(0.100000,-0.100000)"
fill="#000000" stroke="none">
<path d="M1080 4190 c0 -5 44 -119 98 -254 98 -244 98 -245 82 -278 -8 -18
-35 -78 -59 -133 -24 -55 -51 -118 -61 -140 -10 -22 -62 -139 -115 -260 -53
-121 -103 -233 -110 -250 -8 -16 -49 -109 -91 -205 -42 -96 -83 -191 -92 -210
-9 -19 -16 -37 -17 -40 -1 -3 -8 -21 -17 -40 -70 -155 -87 -201 -75 -205 6 -2
44 -7 82 -11 39 -4 72 -8 75 -9 3 -1 36 -5 74 -9 38 -4 79 -9 90 -11 12 -2 44
-6 71 -10 28 -3 64 -8 80 -10 17 -3 86 -12 155 -20 172 -22 179 -23 230 -30
25 -3 63 -8 85 -10 22 -3 56 -8 76 -10 69 -10 144 -20 239 -31 30 -4 55 -7 56
-8 1 -2 243 -295 368 -446 66 -80 123 -147 126 -150 3 -3 18 -22 33 -43 15
-20 32 -37 36 -37 5 0 35 33 67 72 32 40 66 82 76 93 35 40 88 104 248 300 90
110 168 203 174 207 5 3 37 9 70 13 34 4 75 9 91 11 17 3 44 7 60 9 62 6 151
17 166 20 9 2 38 6 65 9 27 4 63 8 79 10 17 3 53 7 80 11 235 30 284 36 315
41 19 3 55 7 80 10 25 2 56 6 70 9 14 2 48 7 75 10 28 3 68 9 90 12 22 4 48 7
57 8 10 1 20 4 22 6 4 4 -129 316 -196 459 -11 25 -42 95 -68 155 -41 94 -162
371 -220 500 -10 22 -50 114 -90 205 -40 91 -76 170 -80 175 -4 6 37 122 91
259 54 137 99 253 99 257 0 8 -44 -3 -85 -21 -11 -5 -159 -61 -330 -125 -170
-64 -319 -120 -330 -124 -11 -5 -47 -19 -80 -31 -33 -12 -73 -28 -88 -35 -24
-10 -60 -6 -261 35 -231 46 -253 49 -311 37 -320 -66 -380 -78 -410 -80 -9 0
-351 128 -410 153 -11 5 -65 26 -120 46 -55 20 -158 59 -230 86 -161 61 -185
69 -185 58z"/>
<path d="M3195 1065 c-45 -24 -65 -55 -65 -101 0 -58 26 -91 128 -160 66 -46
96 -87 96 -134 0 -87 -112 -114 -186 -45 -16 14 -28 32 -28 40 0 8 -5 17 -11
21 -7 4 -9 -11 -7 -47 4 -45 8 -54 24 -55 10 -1 36 -6 56 -12 105 -29 208 30
208 121 0 56 -23 87 -121 167 -103 83 -124 120 -95 165 34 52 140 35 175 -27
22 -38 27 -35 23 16 -4 41 -6 44 -40 51 -84 16 -127 16 -157 0z"/>
<path d="M1587 1058 c-8 -5 -5 -8 9 -8 41 0 45 -19 45 -207 0 -98 0 -190 0
-206 -1 -19 -8 -31 -26 -39 -14 -6 -25 -14 -25 -18 0 -4 43 -7 95 -7 52 0 95
3 95 6 0 3 -15 13 -33 21 l-32 15 0 104 0 104 58 0 c120 -2 116 -1 123 -28 11
-44 19 -27 20 40 0 64 -9 84 -21 45 -3 -11 -12 -21 -18 -21 -40 -4 -144 -5
-154 -1 -18 6 -18 172 0 173 52 5 162 -3 173 -12 8 -6 14 -20 14 -30 0 -11 4
-19 9 -19 6 0 9 67 2 91 -2 8 -320 6 -334 -3z"/>
<path d="M2130 1060 c0 -3 16 -12 36 -20 34 -14 39 -23 125 -235 50 -121 96
-226 103 -233 23 -24 41 -2 85 104 24 57 47 106 50 109 4 2 29 -48 55 -111 36
-87 52 -114 63 -110 8 3 18 6 22 6 4 0 13 17 20 38 6 20 51 127 99 237 73 167
91 201 110 203 49 7 17 17 -58 18 -44 0 -80 -3 -80 -8 0 -4 14 -8 30 -8 34 0
38 -15 15 -63 -8 -18 -41 -95 -74 -172 -32 -77 -63 -141 -68 -142 -4 -2 -27
46 -51 105 l-42 108 26 64 c30 74 49 100 76 100 10 0 18 4 18 8 0 4 -72 8
-160 8 -88 0 -160 -3 -160 -6 0 -3 15 -12 34 -18 31 -12 38 -21 61 -82 1 -3 7
-18 14 -35 27 -63 28 -71 16 -105 -17 -47 -65 -150 -70 -150 -5 0 -35 61 -35
72 0 4 -9 27 -20 51 -48 105 -86 204 -85 227 0 18 6 26 23 28 12 2 22 7 22 11
0 4 -45 8 -100 7 -55 0 -100 -3 -100 -6z m450 -34 c0 -14 -4 -28 -10 -31 -5
-3 -10 -15 -10 -26 0 -31 -17 -22 -33 19 -17 43 -8 62 29 62 19 0 24 -5 24
-24z"/>
<path d="M878 868 c13 -16 692 -13 692 2 0 6 -130 10 -351 10 -280 0 -349 -3
-341 -12z"/>
<path d="M3430 871 c0 -5 4 -11 10 -13 25 -8 690 3 690 12 0 6 -129 10 -350
10 -205 0 -350 -4 -350 -9z"/>
</g>
</svg>
